<svg xmlns="http://www.w3.org/2000/svg" xmlns:xlink="http://www.w3.org/1999/xlink" width="600" height="400" viewBox="0 0 2400 1600">
<defs>
  <clipPath id="clip760">
    <rect x="0" y="0" width="2400" height="1600"></rect>
  </clipPath>
</defs>
<path clip-path="url(#clip760)" d="
M0 1600 L2400 1600 L2400 0 L0 0  Z
  " fill="#ffffff" fill-rule="evenodd" fill-opacity="1"></path>
<defs>
  <clipPath id="clip761">
    <rect x="480" y="0" width="1681" height="1600"></rect>
  </clipPath>
</defs>
<path clip-path="url(#clip760)" d="
M169.121 1486.45 L2352.76 1486.45 L2352.76 47.2441 L169.121 47.2441  Z
  " fill="#ffffff" fill-rule="evenodd" fill-opacity="1"></path>
<defs>
  <clipPath id="clip762">
    <rect x="169" y="47" width="2185" height="1440"></rect>
  </clipPath>
</defs>
<polyline clip-path="url(#clip762)" style="stroke:#000000; stroke-linecap:butt; stroke-linejoin:round; stroke-width:2; stroke-opacity:0.1; fill:none" points="
  605.474,1486.45 605.474,47.2441 
  "></polyline>
<polyline clip-path="url(#clip762)" style="stroke:#000000; stroke-linecap:butt; stroke-linejoin:round; stroke-width:2; stroke-opacity:0.1; fill:none" points="
  1916.4,1486.45 1916.4,47.2441 
  "></polyline>
<polyline clip-path="url(#clip760)" style="stroke:#000000; stroke-linecap:butt; stroke-linejoin:round; stroke-width:4; stroke-opacity:1; fill:none" points="
  169.121,1486.45 2352.76,1486.45 
  "></polyline>
<polyline clip-path="url(#clip760)" style="stroke:#000000; stroke-linecap:butt; stroke-linejoin:round; stroke-width:4; stroke-opacity:1; fill:none" points="
  605.474,1486.45 605.474,1467.55 
  "></polyline>
<polyline clip-path="url(#clip760)" style="stroke:#000000; stroke-linecap:butt; stroke-linejoin:round; stroke-width:4; stroke-opacity:1; fill:none" points="
  1916.4,1486.45 1916.4,1467.55 
  "></polyline>
<path clip-path="url(#clip760)" d="M582.661 1522.92 L573.286 1535.54 L583.147 1548.85 L578.124 1548.85 L570.578 1538.66 L563.032 1548.85 L558.009 1548.85 L568.078 1535.28 L558.865 1522.92 L563.888 1522.92 L570.763 1532.16 L577.638 1522.92 L582.661 1522.92 Z" fill="#000000" fill-rule="evenodd" fill-opacity="1"></path><path clip-path="url(#clip760)" d="M589.166 1522.92 L593.425 1522.92 L593.425 1548.85 L589.166 1548.85 L589.166 1522.92 M589.166 1512.83 L593.425 1512.83 L593.425 1518.22 L589.166 1518.22 L589.166 1512.83 Z" fill="#000000" fill-rule="evenodd" fill-opacity="1"></path><path clip-path="url(#clip760)" d="M614.119 1535.82 Q608.957 1535.82 606.967 1537 Q604.976 1538.18 604.976 1541.02 Q604.976 1543.29 606.457 1544.63 Q607.962 1545.95 610.532 1545.95 Q614.073 1545.95 616.203 1543.45 Q618.356 1540.93 618.356 1536.76 L618.356 1535.82 L614.119 1535.82 M622.615 1534.06 L622.615 1548.85 L618.356 1548.85 L618.356 1544.91 Q616.897 1547.27 614.721 1548.41 Q612.545 1549.52 609.397 1549.52 Q605.416 1549.52 603.055 1547.3 Q600.717 1545.05 600.717 1541.3 Q600.717 1536.93 603.633 1534.7 Q606.573 1532.48 612.383 1532.48 L618.356 1532.48 L618.356 1532.07 Q618.356 1529.13 616.411 1527.53 Q614.49 1525.91 610.994 1525.91 Q608.772 1525.91 606.666 1526.44 Q604.559 1526.97 602.615 1528.04 L602.615 1524.1 Q604.953 1523.2 607.152 1522.76 Q609.351 1522.3 611.434 1522.3 Q617.059 1522.3 619.837 1525.21 Q622.615 1528.13 622.615 1534.06 Z" fill="#000000" fill-rule="evenodd" fill-opacity="1"></path><path clip-path="url(#clip760)" d="M652.939 1533.2 L652.939 1548.85 L648.679 1548.85 L648.679 1533.34 Q648.679 1529.66 647.244 1527.83 Q645.809 1526 642.939 1526 Q639.49 1526 637.499 1528.2 Q635.508 1530.4 635.508 1534.2 L635.508 1548.85 L631.226 1548.85 L631.226 1522.92 L635.508 1522.92 L635.508 1526.95 Q637.036 1524.61 639.096 1523.45 Q641.18 1522.3 643.888 1522.3 Q648.355 1522.3 650.647 1525.07 Q652.939 1527.83 652.939 1533.2 Z" fill="#000000" fill-rule="evenodd" fill-opacity="1"></path><path clip-path="url(#clip760)" d="M1860.03 1535.91 Q1860.03 1531.21 1858.08 1528.55 Q1856.16 1525.86 1852.78 1525.86 Q1849.4 1525.86 1847.46 1528.55 Q1845.54 1531.21 1845.54 1535.91 Q1845.54 1540.61 1847.46 1543.29 Q1849.4 1545.95 1852.78 1545.95 Q1856.16 1545.95 1858.08 1543.29 Q1860.03 1540.61 1860.03 1535.91 M1845.54 1526.86 Q1846.88 1524.54 1848.92 1523.43 Q1850.98 1522.3 1853.82 1522.3 Q1858.55 1522.3 1861.48 1526.05 Q1864.45 1529.8 1864.45 1535.91 Q1864.45 1542.02 1861.48 1545.77 Q1858.55 1549.52 1853.82 1549.52 Q1850.98 1549.52 1848.92 1548.41 Q1846.88 1547.27 1845.54 1544.96 L1845.54 1548.85 L1841.25 1548.85 L1841.25 1512.83 L1845.54 1512.83 L1845.54 1526.86 Z" fill="#000000" fill-rule="evenodd" fill-opacity="1"></path><path clip-path="url(#clip760)" d="M1893.68 1534.82 L1893.68 1536.9 L1874.1 1536.9 Q1874.38 1541.3 1876.74 1543.62 Q1879.12 1545.91 1883.36 1545.91 Q1885.81 1545.91 1888.11 1545.31 Q1890.42 1544.7 1892.69 1543.5 L1892.69 1547.53 Q1890.4 1548.5 1887.99 1549.01 Q1885.58 1549.52 1883.11 1549.52 Q1876.9 1549.52 1873.27 1545.91 Q1869.66 1542.3 1869.66 1536.14 Q1869.66 1529.77 1873.08 1526.05 Q1876.53 1522.3 1882.36 1522.3 Q1887.6 1522.3 1890.63 1525.68 Q1893.68 1529.03 1893.68 1534.82 M1889.42 1533.57 Q1889.38 1530.07 1887.46 1527.99 Q1885.56 1525.91 1882.41 1525.91 Q1878.85 1525.91 1876.69 1527.92 Q1874.56 1529.94 1874.24 1533.59 L1889.42 1533.57 Z" fill="#000000" fill-rule="evenodd" fill-opacity="1"></path><path clip-path="url(#clip760)" d="M1900.67 1522.92 L1904.93 1522.92 L1904.93 1548.85 L1900.67 1548.85 L1900.67 1522.92 M1900.67 1512.83 L1904.93 1512.83 L1904.93 1518.22 L1900.67 1518.22 L1900.67 1512.83 Z" fill="#000000" fill-rule="evenodd" fill-opacity="1"></path><path clip-path="url(#clip760)" d="M1913.85 1522.92 L1918.1 1522.92 L1918.1 1549.31 Q1918.1 1554.26 1916.21 1556.49 Q1914.33 1558.71 1910.14 1558.71 L1908.52 1558.71 L1908.52 1555.1 L1909.66 1555.1 Q1912.09 1555.1 1912.97 1553.96 Q1913.85 1552.85 1913.85 1549.31 L1913.85 1522.92 M1913.85 1512.83 L1918.1 1512.83 L1918.1 1518.22 L1913.85 1518.22 L1913.85 1512.83 Z" fill="#000000" fill-rule="evenodd" fill-opacity="1"></path><path clip-path="url(#clip760)" d="M1927.02 1522.92 L1931.28 1522.92 L1931.28 1548.85 L1927.02 1548.85 L1927.02 1522.92 M1927.02 1512.83 L1931.28 1512.83 L1931.28 1518.22 L1927.02 1518.22 L1927.02 1512.83 Z" fill="#000000" fill-rule="evenodd" fill-opacity="1"></path><path clip-path="url(#clip760)" d="M1961.74 1533.2 L1961.74 1548.85 L1957.48 1548.85 L1957.48 1533.34 Q1957.48 1529.66 1956.04 1527.83 Q1954.61 1526 1951.74 1526 Q1948.29 1526 1946.3 1528.2 Q1944.31 1530.4 1944.31 1534.2 L1944.31 1548.85 L1940.03 1548.85 L1940.03 1522.92 L1944.31 1522.92 L1944.31 1526.95 Q1945.84 1524.61 1947.9 1523.45 Q1949.98 1522.3 1952.69 1522.3 Q1957.16 1522.3 1959.45 1525.07 Q1961.74 1527.83 1961.74 1533.2 Z" fill="#000000" fill-rule="evenodd" fill-opacity="1"></path><path clip-path="url(#clip760)" d="M1987.29 1535.58 Q1987.29 1530.95 1985.37 1528.41 Q1983.47 1525.86 1980.03 1525.86 Q1976.6 1525.86 1974.68 1528.41 Q1972.78 1530.95 1972.78 1535.58 Q1972.78 1540.19 1974.68 1542.74 Q1976.6 1545.28 1980.03 1545.28 Q1983.47 1545.28 1985.37 1542.74 Q1987.29 1540.19 1987.29 1535.58 M1991.55 1545.63 Q1991.55 1552.25 1988.61 1555.47 Q1985.67 1558.71 1979.61 1558.71 Q1977.36 1558.71 1975.37 1558.36 Q1973.38 1558.04 1971.51 1557.34 L1971.51 1553.2 Q1973.38 1554.22 1975.21 1554.7 Q1977.04 1555.19 1978.94 1555.19 Q1983.13 1555.19 1985.21 1552.99 Q1987.29 1550.82 1987.29 1546.39 L1987.29 1544.29 Q1985.97 1546.58 1983.91 1547.71 Q1981.85 1548.85 1978.98 1548.85 Q1974.22 1548.85 1971.3 1545.21 Q1968.38 1541.58 1968.38 1535.58 Q1968.38 1529.57 1971.3 1525.93 Q1974.22 1522.3 1978.98 1522.3 Q1981.85 1522.3 1983.91 1523.43 Q1985.97 1524.57 1987.29 1526.86 L1987.29 1522.92 L1991.55 1522.92 L1991.55 1545.63 Z" fill="#000000" fill-rule="evenodd" fill-opacity="1"></path><polyline clip-path="url(#clip762)" style="stroke:#000000; stroke-linecap:butt; stroke-linejoin:round; stroke-width:2; stroke-opacity:0.1; fill:none" points="
  169.121,1227.32 2352.76,1227.32 
  "></polyline>
<polyline clip-path="url(#clip762)" style="stroke:#000000; stroke-linecap:butt; stroke-linejoin:round; stroke-width:2; stroke-opacity:0.1; fill:none" points="
  169.121,900.509 2352.76,900.509 
  "></polyline>
<polyline clip-path="url(#clip762)" style="stroke:#000000; stroke-linecap:butt; stroke-linejoin:round; stroke-width:2; stroke-opacity:0.1; fill:none" points="
  169.121,573.7 2352.76,573.7 
  "></polyline>
<polyline clip-path="url(#clip762)" style="stroke:#000000; stroke-linecap:butt; stroke-linejoin:round; stroke-width:2; stroke-opacity:0.1; fill:none" points="
  169.121,246.892 2352.76,246.892 
  "></polyline>
<polyline clip-path="url(#clip760)" style="stroke:#000000; stroke-linecap:butt; stroke-linejoin:round; stroke-width:4; stroke-opacity:1; fill:none" points="
  169.121,1486.45 169.121,47.2441 
  "></polyline>
<polyline clip-path="url(#clip760)" style="stroke:#000000; stroke-linecap:butt; stroke-linejoin:round; stroke-width:4; stroke-opacity:1; fill:none" points="
  169.121,1227.32 188.019,1227.32 
  "></polyline>
<polyline clip-path="url(#clip760)" style="stroke:#000000; stroke-linecap:butt; stroke-linejoin:round; stroke-width:4; stroke-opacity:1; fill:none" points="
  169.121,900.509 188.019,900.509 
  "></polyline>
<polyline clip-path="url(#clip760)" style="stroke:#000000; stroke-linecap:butt; stroke-linejoin:round; stroke-width:4; stroke-opacity:1; fill:none" points="
  169.121,573.7 188.019,573.7 
  "></polyline>
<polyline clip-path="url(#clip760)" style="stroke:#000000; stroke-linecap:butt; stroke-linejoin:round; stroke-width:4; stroke-opacity:1; fill:none" points="
  169.121,246.892 188.019,246.892 
  "></polyline>
<path clip-path="url(#clip760)" d="M91.5938 1225.45 Q88.4456 1225.45 86.5938 1227.61 Q84.7651 1229.76 84.7651 1233.51 Q84.7651 1237.24 86.5938 1239.41 Q88.4456 1241.56 91.5938 1241.56 Q94.7419 1241.56 96.5706 1239.41 Q98.4224 1237.24 98.4224 1233.51 Q98.4224 1229.76 96.5706 1227.61 Q94.7419 1225.45 91.5938 1225.45 M100.876 1210.8 L100.876 1215.06 Q99.1169 1214.23 97.3113 1213.79 Q95.5289 1213.35 93.7697 1213.35 Q89.1401 1213.35 86.6864 1216.47 Q84.2558 1219.6 83.9086 1225.92 Q85.2743 1223.9 87.3345 1222.84 Q89.3947 1221.75 91.8715 1221.75 Q97.0798 1221.75 100.089 1224.92 Q103.121 1228.07 103.121 1233.51 Q103.121 1238.83 99.9733 1242.05 Q96.8252 1245.27 91.5938 1245.27 Q85.5984 1245.27 82.4271 1240.68 Q79.2559 1236.08 79.2559 1227.35 Q79.2559 1219.16 83.1447 1214.3 Q87.0336 1209.41 93.5845 1209.41 Q95.3437 1209.41 97.1261 1209.76 Q98.9317 1210.11 100.876 1210.8 Z" fill="#000000" fill-rule="evenodd" fill-opacity="1"></path><path clip-path="url(#clip760)" d="M121.177 1213.12 Q117.566 1213.12 115.737 1216.68 Q113.932 1220.22 113.932 1227.35 Q113.932 1234.46 115.737 1238.02 Q117.566 1241.56 121.177 1241.56 Q124.811 1241.56 126.617 1238.02 Q128.445 1234.46 128.445 1227.35 Q128.445 1220.22 126.617 1216.68 Q124.811 1213.12 121.177 1213.12 M121.177 1209.41 Q126.987 1209.41 130.043 1214.02 Q133.121 1218.6 133.121 1227.35 Q133.121 1236.08 130.043 1240.68 Q126.987 1245.27 121.177 1245.27 Q115.367 1245.27 112.288 1240.68 Q109.233 1236.08 109.233 1227.35 Q109.233 1218.6 112.288 1214.02 Q115.367 1209.41 121.177 1209.41 Z" fill="#000000" fill-rule="evenodd" fill-opacity="1"></path><path clip-path="url(#clip760)" d="M91.0151 901.377 Q87.6817 901.377 85.7605 903.159 Q83.8623 904.941 83.8623 908.066 Q83.8623 911.191 85.7605 912.974 Q87.6817 914.756 91.0151 914.756 Q94.3484 914.756 96.2697 912.974 Q98.1909 911.168 98.1909 908.066 Q98.1909 904.941 96.2697 903.159 Q94.3715 901.377 91.0151 901.377 M86.3392 899.386 Q83.3299 898.645 81.6401 896.585 Q79.9735 894.525 79.9735 891.562 Q79.9735 887.418 82.9133 885.011 Q85.8762 882.604 91.0151 882.604 Q96.1771 882.604 99.1169 885.011 Q102.057 887.418 102.057 891.562 Q102.057 894.525 100.367 896.585 Q98.7002 898.645 95.7141 899.386 Q99.0937 900.173 100.969 902.465 Q102.867 904.756 102.867 908.066 Q102.867 913.09 99.7882 915.775 Q96.7326 918.46 91.0151 918.46 Q85.2975 918.46 82.2188 915.775 Q79.1633 913.09 79.1633 908.066 Q79.1633 904.756 81.0614 902.465 Q82.9595 900.173 86.3392 899.386 M84.6262 892.002 Q84.6262 894.687 86.2929 896.191 Q87.9827 897.696 91.0151 897.696 Q94.0243 897.696 95.7141 896.191 Q97.4271 894.687 97.4271 892.002 Q97.4271 889.316 95.7141 887.812 Q94.0243 886.307 91.0151 886.307 Q87.9827 886.307 86.2929 887.812 Q84.6262 889.316 84.6262 892.002 Z" fill="#000000" fill-rule="evenodd" fill-opacity="1"></path><path clip-path="url(#clip760)" d="M121.177 886.307 Q117.566 886.307 115.737 889.872 Q113.932 893.414 113.932 900.543 Q113.932 907.65 115.737 911.215 Q117.566 914.756 121.177 914.756 Q124.811 914.756 126.617 911.215 Q128.445 907.65 128.445 900.543 Q128.445 893.414 126.617 889.872 Q124.811 886.307 121.177 886.307 M121.177 882.604 Q126.987 882.604 130.043 887.21 Q133.121 891.793 133.121 900.543 Q133.121 909.27 130.043 913.877 Q126.987 918.46 121.177 918.46 Q115.367 918.46 112.288 913.877 Q109.233 909.27 109.233 900.543 Q109.233 891.793 112.288 887.21 Q115.367 882.604 121.177 882.604 Z" fill="#000000" fill-rule="evenodd" fill-opacity="1"></path><path clip-path="url(#clip760)" d="M51.6634 587.045 L59.3023 587.045 L59.3023 560.68 L50.9921 562.346 L50.9921 558.087 L59.256 556.42 L63.9319 556.42 L63.9319 587.045 L71.5707 587.045 L71.5707 590.98 L51.6634 590.98 L51.6634 587.045 Z" fill="#000000" fill-rule="evenodd" fill-opacity="1"></path><path clip-path="url(#clip760)" d="M91.0151 559.499 Q87.404 559.499 85.5753 563.064 Q83.7697 566.605 83.7697 573.735 Q83.7697 580.841 85.5753 584.406 Q87.404 587.948 91.0151 587.948 Q94.6493 587.948 96.4548 584.406 Q98.2835 580.841 98.2835 573.735 Q98.2835 566.605 96.4548 563.064 Q94.6493 559.499 91.0151 559.499 M91.0151 555.795 Q96.8252 555.795 99.8808 560.402 Q102.959 564.985 102.959 573.735 Q102.959 582.462 99.8808 587.068 Q96.8252 591.652 91.0151 591.652 Q85.2049 591.652 82.1262 587.068 Q79.0707 582.462 79.0707 573.735 Q79.0707 564.985 82.1262 560.402 Q85.2049 555.795 91.0151 555.795 Z" fill="#000000" fill-rule="evenodd" fill-opacity="1"></path><path clip-path="url(#clip760)" d="M121.177 559.499 Q117.566 559.499 115.737 563.064 Q113.932 566.605 113.932 573.735 Q113.932 580.841 115.737 584.406 Q117.566 587.948 121.177 587.948 Q124.811 587.948 126.617 584.406 Q128.445 580.841 128.445 573.735 Q128.445 566.605 126.617 563.064 Q124.811 559.499 121.177 559.499 M121.177 555.795 Q126.987 555.795 130.043 560.402 Q133.121 564.985 133.121 573.735 Q133.121 582.462 130.043 587.068 Q126.987 591.652 121.177 591.652 Q115.367 591.652 112.288 587.068 Q109.233 582.462 109.233 573.735 Q109.233 564.985 112.288 560.402 Q115.367 555.795 121.177 555.795 Z" fill="#000000" fill-rule="evenodd" fill-opacity="1"></path><path clip-path="url(#clip760)" d="M51.6634 260.237 L59.3023 260.237 L59.3023 233.871 L50.9921 235.538 L50.9921 231.279 L59.256 229.612 L63.9319 229.612 L63.9319 260.237 L71.5707 260.237 L71.5707 264.172 L51.6634 264.172 L51.6634 260.237 Z" fill="#000000" fill-rule="evenodd" fill-opacity="1"></path><path clip-path="url(#clip760)" d="M85.0429 260.237 L101.362 260.237 L101.362 264.172 L79.4179 264.172 L79.4179 260.237 Q82.0799 257.482 86.6632 252.853 Q91.2697 248.2 92.4502 246.857 Q94.6956 244.334 95.5752 242.598 Q96.478 240.839 96.478 239.149 Q96.478 236.394 94.5336 234.658 Q92.6123 232.922 89.5104 232.922 Q87.3114 232.922 84.8577 233.686 Q82.4271 234.45 79.6494 236.001 L79.6494 231.279 Q82.4734 230.144 84.9271 229.566 Q87.3808 228.987 89.4178 228.987 Q94.7882 228.987 97.9826 231.672 Q101.177 234.357 101.177 238.848 Q101.177 240.978 100.367 242.899 Q99.5798 244.797 97.4734 247.39 Q96.8947 248.061 93.7928 251.279 Q90.691 254.473 85.0429 260.237 Z" fill="#000000" fill-rule="evenodd" fill-opacity="1"></path><path clip-path="url(#clip760)" d="M121.177 232.691 Q117.566 232.691 115.737 236.256 Q113.932 239.797 113.932 246.927 Q113.932 254.033 115.737 257.598 Q117.566 261.14 121.177 261.14 Q124.811 261.14 126.617 257.598 Q128.445 254.033 128.445 246.927 Q128.445 239.797 126.617 236.256 Q124.811 232.691 121.177 232.691 M121.177 228.987 Q126.987 228.987 130.043 233.594 Q133.121 238.177 133.121 246.927 Q133.121 255.654 130.043 260.26 Q126.987 264.843 121.177 264.843 Q115.367 264.843 112.288 260.26 Q109.233 255.654 109.233 246.927 Q109.233 238.177 112.288 233.594 Q115.367 228.987 121.177 228.987 Z" fill="#000000" fill-rule="evenodd" fill-opacity="1"></path><path clip-path="url(#clip762)" d="
M749.202 1386.23 L750.02 1375.5 L749.649 1364.77 L748.211 1354.04 L745.877 1343.32 L742.871 1332.59 L739.451 1321.86 L735.909 1311.13 L732.553 1300.4 L729.698 1289.67 
  L727.654 1278.94 L726.707 1268.21 L727.118 1257.48 L729.103 1246.75 L732.829 1236.02 L738.407 1225.29 L745.885 1214.56 L755.249 1203.83 L766.417 1193.1 L779.249 1182.37 
  L793.545 1171.64 L809.052 1160.92 L825.478 1150.19 L842.496 1139.46 L859.756 1128.73 L876.902 1118 L893.578 1107.27 L909.447 1096.54 L924.197 1085.81 L937.554 1075.08 
  L949.291 1064.35 L959.236 1053.62 L967.272 1042.89 L973.342 1032.16 L977.446 1021.43 L979.639 1010.7 L980.025 999.975 L978.748 989.245 L975.984 978.516 L971.932 967.786 
  L966.805 957.057 L960.816 946.328 L954.177 935.598 L947.082 924.869 L939.708 914.139 L932.204 903.41 L924.691 892.681 L917.259 881.951 L909.963 871.222 L902.829 860.492 
  L895.849 849.763 L888.989 839.034 L882.189 828.304 L875.372 817.575 L868.447 806.845 L861.314 796.116 L853.872 785.387 L846.03 774.657 L837.706 763.928 L828.837 753.199 
  L819.385 742.469 L809.338 731.74 L798.714 721.01 L787.561 710.281 L775.955 699.552 L763.998 688.822 L751.81 678.093 L739.53 667.363 L727.302 656.634 L715.274 645.905 
  L703.588 635.175 L692.376 624.446 L681.751 613.716 L671.81 602.987 L662.623 592.258 L654.24 581.528 L646.685 570.799 L639.96 560.069 L634.047 549.34 L628.914 538.611 
  L624.51 527.881 L620.78 517.152 L617.659 506.423 L615.081 495.693 L612.98 484.964 L611.29 474.234 L609.954 463.505 L608.917 452.776 L608.132 442.046 L607.561 431.317 
  L607.172 420.587 L606.941 409.858 L606.852 399.129 L606.897 388.399 L607.074 377.67 L607.387 366.94 L607.848 356.211 L608.472 345.482 L609.278 334.752 L610.292 324.023 
  L611.538 313.293 L613.042 302.564 L614.832 291.835 L616.928 281.105 L619.348 270.376 L622.104 259.647 L625.197 248.917 L628.617 238.188 L632.34 227.458 L636.331 216.729 
  L640.536 206 L644.89 195.27 L649.312 184.541 L653.71 173.811 L657.984 163.082 L662.027 152.353 L665.731 141.623 L668.993 130.894 L671.718 120.164 L673.824 109.435 
  L675.244 98.7057 L675.934 87.9763 L535.014 87.9763 L535.704 98.7057 L537.124 109.435 L539.229 120.164 L541.954 130.894 L545.216 141.623 L548.921 152.353 L552.963 163.082 
  L557.237 173.811 L561.635 184.541 L566.057 195.27 L570.411 206 L574.617 216.729 L578.607 227.458 L582.331 238.188 L585.75 248.917 L588.843 259.647 L591.599 270.376 
  L594.02 281.105 L596.116 291.835 L597.905 302.564 L599.41 313.293 L600.655 324.023 L601.669 334.752 L602.476 345.482 L603.099 356.211 L603.56 366.94 L603.873 377.67 
  L604.05 388.399 L604.095 399.129 L604.007 409.858 L603.776 420.587 L603.386 431.317 L602.815 442.046 L602.03 452.776 L600.993 463.505 L599.657 474.234 L597.968 484.964 
  L595.866 495.693 L593.288 506.423 L590.167 517.152 L586.437 527.881 L582.034 538.611 L576.9 549.34 L570.988 560.069 L564.263 570.799 L556.707 581.528 L548.324 592.258 
  L539.138 602.987 L529.196 613.716 L518.572 624.446 L507.359 635.175 L495.673 645.905 L483.646 656.634 L471.418 667.363 L459.137 678.093 L446.95 688.822 L434.992 699.552 
  L423.386 710.281 L412.233 721.01 L401.609 731.74 L391.563 742.469 L382.11 753.199 L373.242 763.928 L364.917 774.657 L357.075 785.387 L349.634 796.116 L342.5 806.845 
  L335.575 817.575 L328.758 828.304 L321.959 839.034 L315.098 849.763 L308.118 860.492 L300.984 871.222 L293.689 881.951 L286.256 892.681 L278.744 903.41 L271.24 914.139 
  L263.865 924.869 L256.77 935.598 L250.131 946.328 L244.143 957.057 L239.015 967.786 L234.964 978.516 L232.2 989.245 L230.922 999.975 L231.308 1010.7 L233.501 1021.43 
  L237.606 1032.16 L243.675 1042.89 L251.711 1053.62 L261.656 1064.35 L273.394 1075.08 L286.751 1085.81 L301.5 1096.54 L317.369 1107.27 L334.045 1118 L351.191 1128.73 
  L368.452 1139.46 L385.469 1150.19 L401.895 1160.92 L417.403 1171.64 L431.698 1182.37 L444.53 1193.1 L455.699 1203.83 L465.062 1214.56 L472.541 1225.29 L478.119 1236.02 
  L481.845 1246.75 L483.83 1257.48 L484.24 1268.21 L483.294 1278.94 L481.249 1289.67 L478.394 1300.4 L475.039 1311.13 L471.497 1321.86 L468.077 1332.59 L465.07 1343.32 
  L462.737 1354.04 L461.298 1364.77 L460.928 1375.5 L461.745 1386.23 L749.202 1386.23  Z
  " fill="#009af9" fill-rule="evenodd" fill-opacity="1"></path>
<polyline clip-path="url(#clip762)" style="stroke:#000000; stroke-linecap:butt; stroke-linejoin:round; stroke-width:4; stroke-opacity:1; fill:none" points="
  749.202,1386.23 750.02,1375.5 749.649,1364.77 748.211,1354.04 745.877,1343.32 742.871,1332.59 739.451,1321.86 735.909,1311.13 732.553,1300.4 729.698,1289.67 
  727.654,1278.94 726.707,1268.21 727.118,1257.48 729.103,1246.75 732.829,1236.02 738.407,1225.29 745.885,1214.56 755.249,1203.83 766.417,1193.1 779.249,1182.37 
  793.545,1171.64 809.052,1160.92 825.478,1150.19 842.496,1139.46 859.756,1128.73 876.902,1118 893.578,1107.27 909.447,1096.54 924.197,1085.81 937.554,1075.08 
  949.291,1064.35 959.236,1053.62 967.272,1042.89 973.342,1032.16 977.446,1021.43 979.639,1010.7 980.025,999.975 978.748,989.245 975.984,978.516 971.932,967.786 
  966.805,957.057 960.816,946.328 954.177,935.598 947.082,924.869 939.708,914.139 932.204,903.41 924.691,892.681 917.259,881.951 909.963,871.222 902.829,860.492 
  895.849,849.763 888.989,839.034 882.189,828.304 875.372,817.575 868.447,806.845 861.314,796.116 853.872,785.387 846.03,774.657 837.706,763.928 828.837,753.199 
  819.385,742.469 809.338,731.74 798.714,721.01 787.561,710.281 775.955,699.552 763.998,688.822 751.81,678.093 739.53,667.363 727.302,656.634 715.274,645.905 
  703.588,635.175 692.376,624.446 681.751,613.716 671.81,602.987 662.623,592.258 654.24,581.528 646.685,570.799 639.96,560.069 634.047,549.34 628.914,538.611 
  624.51,527.881 620.78,517.152 617.659,506.423 615.081,495.693 612.98,484.964 611.29,474.234 609.954,463.505 608.917,452.776 608.132,442.046 607.561,431.317 
  607.172,420.587 606.941,409.858 606.852,399.129 606.897,388.399 607.074,377.67 607.387,366.94 607.848,356.211 608.472,345.482 609.278,334.752 610.292,324.023 
  611.538,313.293 613.042,302.564 614.832,291.835 616.928,281.105 619.348,270.376 622.104,259.647 625.197,248.917 628.617,238.188 632.34,227.458 636.331,216.729 
  640.536,206 644.89,195.27 649.312,184.541 653.71,173.811 657.984,163.082 662.027,152.353 665.731,141.623 668.993,130.894 671.718,120.164 673.824,109.435 
  675.244,98.7057 675.934,87.9763 535.014,87.9763 535.704,98.7057 537.124,109.435 539.229,120.164 541.954,130.894 545.216,141.623 548.921,152.353 552.963,163.082 
  557.237,173.811 561.635,184.541 566.057,195.27 570.411,206 574.617,216.729 578.607,227.458 582.331,238.188 585.75,248.917 588.843,259.647 591.599,270.376 
  594.02,281.105 596.116,291.835 597.905,302.564 599.41,313.293 600.655,324.023 601.669,334.752 602.476,345.482 603.099,356.211 603.56,366.94 603.873,377.67 
  604.05,388.399 604.095,399.129 604.007,409.858 603.776,420.587 603.386,431.317 602.815,442.046 602.03,452.776 600.993,463.505 599.657,474.234 597.968,484.964 
  595.866,495.693 593.288,506.423 590.167,517.152 586.437,527.881 582.034,538.611 576.9,549.34 570.988,560.069 564.263,570.799 556.707,581.528 548.324,592.258 
  539.138,602.987 529.196,613.716 518.572,624.446 507.359,635.175 495.673,645.905 483.646,656.634 471.418,667.363 459.137,678.093 446.95,688.822 434.992,699.552 
  423.386,710.281 412.233,721.01 401.609,731.74 391.563,742.469 382.11,753.199 373.242,763.928 364.917,774.657 357.075,785.387 349.634,796.116 342.5,806.845 
  335.575,817.575 328.758,828.304 321.959,839.034 315.098,849.763 308.118,860.492 300.984,871.222 293.689,881.951 286.256,892.681 278.744,903.41 271.24,914.139 
  263.865,924.869 256.77,935.598 250.131,946.328 244.143,957.057 239.015,967.786 234.964,978.516 232.2,989.245 230.922,999.975 231.308,1010.7 233.501,1021.43 
  237.606,1032.16 243.675,1042.89 251.711,1053.62 261.656,1064.35 273.394,1075.08 286.751,1085.81 301.5,1096.54 317.369,1107.27 334.045,1118 351.191,1128.73 
  368.452,1139.46 385.469,1150.19 401.895,1160.92 417.403,1171.64 431.698,1182.37 444.53,1193.1 455.699,1203.83 465.062,1214.56 472.541,1225.29 478.119,1236.02 
  481.845,1246.75 483.83,1257.48 484.24,1268.21 483.294,1278.94 481.249,1289.67 478.394,1300.4 475.039,1311.13 471.497,1321.86 468.077,1332.59 465.07,1343.32 
  462.737,1354.04 461.298,1364.77 460.928,1375.5 461.745,1386.23 749.202,1386.23 
  "></polyline>
<path clip-path="url(#clip762)" d="
M1982.98 1445.72 L1981.88 1434.72 L1980.07 1423.73 L1977.61 1412.74 L1974.58 1401.75 L1971.09 1390.76 L1967.25 1379.77 L1963.19 1368.78 L1959.04 1357.79 L1954.91 1346.8 
  L1950.94 1335.81 L1947.21 1324.82 L1943.83 1313.83 L1940.87 1302.84 L1938.41 1291.85 L1936.5 1280.85 L1935.17 1269.86 L1934.46 1258.87 L1934.37 1247.88 L1934.91 1236.89 
  L1936.07 1225.9 L1937.83 1214.91 L1940.14 1203.92 L1942.96 1192.93 L1946.23 1181.94 L1949.87 1170.95 L1953.79 1159.96 L1957.88 1148.97 L1962.05 1137.98 L1966.15 1126.98 
  L1970.08 1115.99 L1973.71 1105 L1976.92 1094.01 L1979.62 1083.02 L1981.71 1072.03 L1983.14 1061.04 L1983.87 1050.05 L1983.89 1039.06 L1983.23 1028.07 L1981.95 1017.08 
  L1980.12 1006.09 L1977.86 995.095 L1975.31 984.105 L1972.6 973.114 L1969.92 962.123 L1967.41 951.132 L1965.26 940.142 L1963.63 929.151 L1962.66 918.16 L1962.5 907.169 
  L1963.28 896.179 L1965.12 885.188 L1968.1 874.197 L1972.31 863.207 L1977.82 852.216 L1984.66 841.225 L1992.87 830.234 L2002.47 819.244 L2013.47 808.253 L2025.85 797.262 
  L2039.58 786.271 L2054.59 775.281 L2070.8 764.29 L2088.09 753.299 L2106.3 742.308 L2125.23 731.318 L2144.63 720.327 L2164.22 709.336 L2183.66 698.345 L2202.59 687.355 
  L2220.62 676.364 L2237.35 665.373 L2252.38 654.383 L2265.34 643.392 L2275.91 632.401 L2283.81 621.41 L2288.86 610.42 L2290.95 599.429 L2290.09 588.438 L2286.36 577.447 
  L2279.97 566.457 L2271.2 555.466 L2260.4 544.475 L2247.99 533.484 L2234.41 522.494 L2220.12 511.503 L2205.56 500.512 L2191.14 489.521 L2177.22 478.531 L2164.12 467.54 
  L2152.05 456.549 L2141.18 445.558 L2131.59 434.568 L2123.29 423.577 L2116.25 412.586 L2110.35 401.596 L2105.48 390.605 L2101.46 379.614 L2098.11 368.623 L2095.27 357.633 
  L2092.74 346.642 L2090.37 335.651 L2088.01 324.66 L2085.56 313.67 L2082.91 302.679 L2080.02 291.688 L2076.84 280.697 L2073.38 269.707 L2069.66 258.716 L2065.71 247.725 
  L2061.59 236.734 L2057.35 225.744 L2053.07 214.753 L2048.79 203.762 L2044.57 192.771 L2040.44 181.781 L2036.42 170.79 L2032.51 159.799 L2028.69 148.809 L2024.94 137.818 
  L2021.21 126.827 L2017.45 115.836 L2013.6 104.846 L2009.62 93.8548 L1823.18 93.8548 L1819.2 104.846 L1815.36 115.836 L1811.6 126.827 L1807.86 137.818 L1804.11 148.809 
  L1800.3 159.799 L1796.39 170.79 L1792.37 181.781 L1788.24 192.771 L1784.02 203.762 L1779.74 214.753 L1775.46 225.744 L1771.22 236.734 L1767.1 247.725 L1763.15 258.716 
  L1759.43 269.707 L1755.97 280.697 L1752.79 291.688 L1749.9 302.679 L1747.25 313.67 L1744.79 324.66 L1742.44 335.651 L1740.07 346.642 L1737.54 357.633 L1734.69 368.623 
  L1731.35 379.614 L1727.33 390.605 L1722.45 401.596 L1716.56 412.586 L1709.51 423.577 L1701.22 434.568 L1691.63 445.558 L1680.76 456.549 L1668.69 467.54 L1655.59 478.531 
  L1641.67 489.521 L1627.25 500.512 L1612.69 511.503 L1598.4 522.494 L1584.81 533.484 L1572.4 544.475 L1561.61 555.466 L1552.83 566.457 L1546.44 577.447 L1542.72 588.438 
  L1541.85 599.429 L1543.95 610.42 L1548.99 621.41 L1556.9 632.401 L1567.47 643.392 L1580.43 654.383 L1595.46 665.373 L1612.19 676.364 L1630.22 687.355 L1649.15 698.345 
  L1668.59 709.336 L1688.17 720.327 L1707.58 731.318 L1726.5 742.308 L1744.72 753.299 L1762.01 764.29 L1778.22 775.281 L1793.23 786.271 L1806.96 797.262 L1819.34 808.253 
  L1830.33 819.244 L1839.94 830.234 L1848.15 841.225 L1854.99 852.216 L1860.49 863.207 L1864.7 874.197 L1867.69 885.188 L1869.52 896.179 L1870.31 907.169 L1870.15 918.16 
  L1869.18 929.151 L1867.54 940.142 L1865.39 951.132 L1862.89 962.123 L1860.2 973.114 L1857.5 984.105 L1854.95 995.095 L1852.69 1006.09 L1850.86 1017.08 L1849.58 1028.07 
  L1848.92 1039.06 L1848.94 1050.05 L1849.67 1061.04 L1851.09 1072.03 L1853.19 1083.02 L1855.88 1094.01 L1859.1 1105 L1862.73 1115.99 L1866.65 1126.98 L1870.76 1137.98 
  L1874.92 1148.97 L1879.02 1159.96 L1882.94 1170.95 L1886.58 1181.94 L1889.85 1192.93 L1892.67 1203.92 L1894.98 1214.91 L1896.74 1225.9 L1897.89 1236.89 L1898.43 1247.88 
  L1898.35 1258.87 L1897.63 1269.86 L1896.31 1280.85 L1894.39 1291.85 L1891.94 1302.84 L1888.98 1313.83 L1885.6 1324.82 L1881.87 1335.81 L1877.89 1346.8 L1873.77 1357.79 
  L1869.62 1368.78 L1865.56 1379.77 L1861.72 1390.76 L1858.23 1401.75 L1855.2 1412.74 L1852.73 1423.73 L1850.92 1434.72 L1849.83 1445.72 L1982.98 1445.72  Z
  " fill="#e26f46" fill-rule="evenodd" fill-opacity="1"></path>
<polyline clip-path="url(#clip762)" style="stroke:#000000; stroke-linecap:butt; stroke-linejoin:round; stroke-width:4; stroke-opacity:1; fill:none" points="
  1982.98,1445.72 1981.88,1434.72 1980.07,1423.73 1977.61,1412.74 1974.58,1401.75 1971.09,1390.76 1967.25,1379.77 1963.19,1368.78 1959.04,1357.79 1954.91,1346.8 
  1950.94,1335.81 1947.21,1324.82 1943.83,1313.83 1940.87,1302.84 1938.41,1291.85 1936.5,1280.85 1935.17,1269.86 1934.46,1258.87 1934.37,1247.88 1934.91,1236.89 
  1936.07,1225.9 1937.83,1214.91 1940.14,1203.92 1942.96,1192.93 1946.23,1181.94 1949.87,1170.95 1953.79,1159.96 1957.88,1148.97 1962.05,1137.98 1966.15,1126.98 
  1970.08,1115.99 1973.71,1105 1976.92,1094.01 1979.62,1083.02 1981.71,1072.03 1983.14,1061.04 1983.87,1050.05 1983.89,1039.06 1983.23,1028.07 1981.95,1017.08 
  1980.12,1006.09 1977.86,995.095 1975.31,984.105 1972.6,973.114 1969.92,962.123 1967.41,951.132 1965.26,940.142 1963.63,929.151 1962.66,918.16 1962.5,907.169 
  1963.28,896.179 1965.12,885.188 1968.1,874.197 1972.31,863.207 1977.82,852.216 1984.66,841.225 1992.87,830.234 2002.47,819.244 2013.47,808.253 2025.85,797.262 
  2039.58,786.271 2054.59,775.281 2070.8,764.29 2088.09,753.299 2106.3,742.308 2125.23,731.318 2144.63,720.327 2164.22,709.336 2183.66,698.345 2202.59,687.355 
  2220.62,676.364 2237.35,665.373 2252.38,654.383 2265.34,643.392 2275.91,632.401 2283.81,621.41 2288.86,610.42 2290.95,599.429 2290.09,588.438 2286.36,577.447 
  2279.97,566.457 2271.2,555.466 2260.4,544.475 2247.99,533.484 2234.41,522.494 2220.12,511.503 2205.56,500.512 2191.14,489.521 2177.22,478.531 2164.12,467.54 
  2152.05,456.549 2141.18,445.558 2131.59,434.568 2123.29,423.577 2116.25,412.586 2110.35,401.596 2105.48,390.605 2101.46,379.614 2098.11,368.623 2095.27,357.633 
  2092.74,346.642 2090.37,335.651 2088.01,324.66 2085.56,313.67 2082.91,302.679 2080.02,291.688 2076.84,280.697 2073.38,269.707 2069.66,258.716 2065.71,247.725 
  2061.59,236.734 2057.35,225.744 2053.07,214.753 2048.79,203.762 2044.57,192.771 2040.44,181.781 2036.42,170.79 2032.51,159.799 2028.69,148.809 2024.94,137.818 
  2021.21,126.827 2017.45,115.836 2013.6,104.846 2009.62,93.8548 1823.18,93.8548 1819.2,104.846 1815.36,115.836 1811.6,126.827 1807.86,137.818 1804.11,148.809 
  1800.3,159.799 1796.39,170.79 1792.37,181.781 1788.24,192.771 1784.02,203.762 1779.74,214.753 1775.46,225.744 1771.22,236.734 1767.1,247.725 1763.15,258.716 
  1759.43,269.707 1755.97,280.697 1752.79,291.688 1749.9,302.679 1747.25,313.67 1744.79,324.66 1742.44,335.651 1740.07,346.642 1737.54,357.633 1734.69,368.623 
  1731.35,379.614 1727.33,390.605 1722.45,401.596 1716.56,412.586 1709.51,423.577 1701.22,434.568 1691.63,445.558 1680.76,456.549 1668.69,467.54 1655.59,478.531 
  1641.67,489.521 1627.25,500.512 1612.69,511.503 1598.4,522.494 1584.81,533.484 1572.4,544.475 1561.61,555.466 1552.83,566.457 1546.44,577.447 1542.72,588.438 
  1541.85,599.429 1543.95,610.42 1548.99,621.41 1556.9,632.401 1567.47,643.392 1580.43,654.383 1595.46,665.373 1612.19,676.364 1630.22,687.355 1649.15,698.345 
  1668.59,709.336 1688.17,720.327 1707.58,731.318 1726.5,742.308 1744.72,753.299 1762.01,764.29 1778.22,775.281 1793.23,786.271 1806.96,797.262 1819.34,808.253 
  1830.33,819.244 1839.94,830.234 1848.15,841.225 1854.99,852.216 1860.49,863.207 1864.7,874.197 1867.69,885.188 1869.52,896.179 1870.31,907.169 1870.15,918.16 
  1869.18,929.151 1867.54,940.142 1865.39,951.132 1862.89,962.123 1860.2,973.114 1857.5,984.105 1854.95,995.095 1852.69,1006.09 1850.86,1017.08 1849.58,1028.07 
  1848.92,1039.06 1848.94,1050.05 1849.67,1061.04 1851.09,1072.03 1853.19,1083.02 1855.88,1094.01 1859.1,1105 1862.73,1115.99 1866.65,1126.98 1870.76,1137.98 
  1874.92,1148.97 1879.02,1159.96 1882.94,1170.95 1886.58,1181.94 1889.85,1192.93 1892.67,1203.92 1894.98,1214.91 1896.74,1225.9 1897.89,1236.89 1898.43,1247.88 
  1898.35,1258.87 1897.63,1269.86 1896.31,1280.85 1894.39,1291.85 1891.94,1302.84 1888.98,1313.83 1885.6,1324.82 1881.87,1335.81 1877.89,1346.8 1873.77,1357.79 
  1869.62,1368.78 1865.56,1379.77 1861.72,1390.76 1858.23,1401.75 1855.2,1412.74 1852.73,1423.73 1850.92,1434.72 1849.83,1445.72 1982.98,1445.72 
  "></polyline>
<path clip-path="url(#clip760)" d="
M1887.04 250.738 L2279.97 250.738 L2279.97 95.2176 L1887.04 95.2176  Z
  " fill="#ffffff" fill-rule="evenodd" fill-opacity="1"></path>
<polyline clip-path="url(#clip760)" style="stroke:#000000; stroke-linecap:butt; stroke-linejoin:round; stroke-width:4; stroke-opacity:1; fill:none" points="
  1887.04,250.738 2279.97,250.738 2279.97,95.2176 1887.04,95.2176 1887.04,250.738 
  "></polyline>
<path clip-path="url(#clip760)" d="
M1911.3 167.794 L2056.88 167.794 L2056.88 126.322 L1911.3 126.322 L1911.3 167.794  Z
  " fill="#009af9" fill-rule="evenodd" fill-opacity="1"></path>
<polyline clip-path="url(#clip760)" style="stroke:#000000; stroke-linecap:butt; stroke-linejoin:round; stroke-width:4; stroke-opacity:1; fill:none" points="
  1911.3,167.794 2056.88,167.794 2056.88,126.322 1911.3,126.322 1911.3,167.794 
  "></polyline>
<path clip-path="url(#clip760)" d="M2105.8 138.412 L2096.42 151.027 L2106.28 164.338 L2101.26 164.338 L2093.71 154.152 L2086.17 164.338 L2081.14 164.338 L2091.21 150.773 L2082 138.412 L2087.02 138.412 L2093.9 147.648 L2100.77 138.412 L2105.8 138.412 Z" fill="#000000" fill-rule="evenodd" fill-opacity="1"></path><path clip-path="url(#clip760)" d="M2112.3 138.412 L2116.56 138.412 L2116.56 164.338 L2112.3 164.338 L2112.3 138.412 M2112.3 128.319 L2116.56 128.319 L2116.56 133.713 L2112.3 133.713 L2112.3 128.319 Z" fill="#000000" fill-rule="evenodd" fill-opacity="1"></path><path clip-path="url(#clip760)" d="M2137.25 151.305 Q2132.09 151.305 2130.1 152.486 Q2128.11 153.666 2128.11 156.514 Q2128.11 158.782 2129.59 160.125 Q2131.1 161.444 2133.67 161.444 Q2137.21 161.444 2139.34 158.944 Q2141.49 156.421 2141.49 152.254 L2141.49 151.305 L2137.25 151.305 M2145.75 149.546 L2145.75 164.338 L2141.49 164.338 L2141.49 160.402 Q2140.03 162.763 2137.86 163.898 Q2135.68 165.009 2132.53 165.009 Q2128.55 165.009 2126.19 162.787 Q2123.85 160.541 2123.85 156.791 Q2123.85 152.416 2126.77 150.194 Q2129.71 147.972 2135.52 147.972 L2141.49 147.972 L2141.49 147.555 Q2141.49 144.615 2139.55 143.018 Q2137.62 141.398 2134.13 141.398 Q2131.91 141.398 2129.8 141.93 Q2127.69 142.463 2125.75 143.527 L2125.75 139.592 Q2128.09 138.69 2130.29 138.25 Q2132.49 137.787 2134.57 137.787 Q2140.19 137.787 2142.97 140.703 Q2145.75 143.62 2145.75 149.546 Z" fill="#000000" fill-rule="evenodd" fill-opacity="1"></path><path clip-path="url(#clip760)" d="M2176.07 148.689 L2176.07 164.338 L2171.81 164.338 L2171.81 148.828 Q2171.81 145.148 2170.38 143.319 Q2168.94 141.49 2166.07 141.49 Q2162.62 141.49 2160.63 143.69 Q2158.64 145.889 2158.64 149.685 L2158.64 164.338 L2154.36 164.338 L2154.36 138.412 L2158.64 138.412 L2158.64 142.44 Q2160.17 140.102 2162.23 138.944 Q2164.31 137.787 2167.02 137.787 Q2171.49 137.787 2173.78 140.565 Q2176.07 143.319 2176.07 148.689 Z" fill="#000000" fill-rule="evenodd" fill-opacity="1"></path><path clip-path="url(#clip760)" d="
M1911.3 219.634 L2056.88 219.634 L2056.88 178.162 L1911.3 178.162 L1911.3 219.634  Z
  " fill="#e26f46" fill-rule="evenodd" fill-opacity="1"></path>
<polyline clip-path="url(#clip760)" style="stroke:#000000; stroke-linecap:butt; stroke-linejoin:round; stroke-width:4; stroke-opacity:1; fill:none" points="
  1911.3,219.634 2056.88,219.634 2056.88,178.162 1911.3,178.162 1911.3,219.634 
  "></polyline>
<path clip-path="url(#clip760)" d="M2099.92 203.238 Q2099.92 198.539 2097.97 195.877 Q2096.05 193.192 2092.67 193.192 Q2089.29 193.192 2087.35 195.877 Q2085.43 198.539 2085.43 203.238 Q2085.43 207.937 2087.35 210.622 Q2089.29 213.284 2092.67 213.284 Q2096.05 213.284 2097.97 210.622 Q2099.92 207.937 2099.92 203.238 M2085.43 194.187 Q2086.77 191.872 2088.8 190.761 Q2090.86 189.627 2093.71 189.627 Q2098.43 189.627 2101.37 193.377 Q2104.34 197.127 2104.34 203.238 Q2104.34 209.349 2101.37 213.099 Q2098.43 216.849 2093.71 216.849 Q2090.86 216.849 2088.8 215.738 Q2086.77 214.603 2085.43 212.289 L2085.43 216.178 L2081.14 216.178 L2081.14 180.159 L2085.43 180.159 L2085.43 194.187 Z" fill="#000000" fill-rule="evenodd" fill-opacity="1"></path><path clip-path="url(#clip760)" d="M2133.57 202.15 L2133.57 204.233 L2113.99 204.233 Q2114.27 208.631 2116.63 210.946 Q2119.01 213.238 2123.25 213.238 Q2125.7 213.238 2127.99 212.636 Q2130.31 212.034 2132.58 210.83 L2132.58 214.858 Q2130.29 215.83 2127.88 216.34 Q2125.47 216.849 2122.99 216.849 Q2116.79 216.849 2113.16 213.238 Q2109.55 209.627 2109.55 203.469 Q2109.55 197.104 2112.97 193.377 Q2116.42 189.627 2122.25 189.627 Q2127.49 189.627 2130.52 193.006 Q2133.57 196.363 2133.57 202.15 M2129.31 200.9 Q2129.27 197.405 2127.35 195.321 Q2125.45 193.238 2122.3 193.238 Q2118.74 193.238 2116.58 195.252 Q2114.45 197.266 2114.13 200.923 L2129.31 200.9 Z" fill="#000000" fill-rule="evenodd" fill-opacity="1"></path><path clip-path="url(#clip760)" d="M2140.56 190.252 L2144.82 190.252 L2144.82 216.178 L2140.56 216.178 L2140.56 190.252 M2140.56 180.159 L2144.82 180.159 L2144.82 185.553 L2140.56 185.553 L2140.56 180.159 Z" fill="#000000" fill-rule="evenodd" fill-opacity="1"></path><path clip-path="url(#clip760)" d="M2153.73 190.252 L2157.99 190.252 L2157.99 216.641 Q2157.99 221.594 2156.1 223.816 Q2154.22 226.039 2150.03 226.039 L2148.41 226.039 L2148.41 222.428 L2149.55 222.428 Q2151.98 222.428 2152.86 221.293 Q2153.73 220.182 2153.73 216.641 L2153.73 190.252 M2153.73 180.159 L2157.99 180.159 L2157.99 185.553 L2153.73 185.553 L2153.73 180.159 Z" fill="#000000" fill-rule="evenodd" fill-opacity="1"></path><path clip-path="url(#clip760)" d="M2166.91 190.252 L2171.17 190.252 L2171.17 216.178 L2166.91 216.178 L2166.91 190.252 M2166.91 180.159 L2171.17 180.159 L2171.17 185.553 L2166.91 185.553 L2166.91 180.159 Z" fill="#000000" fill-rule="evenodd" fill-opacity="1"></path><path clip-path="url(#clip760)" d="M2201.63 200.529 L2201.63 216.178 L2197.37 216.178 L2197.37 200.668 Q2197.37 196.988 2195.93 195.159 Q2194.5 193.33 2191.63 193.33 Q2188.18 193.33 2186.19 195.53 Q2184.2 197.729 2184.2 201.525 L2184.2 216.178 L2179.92 216.178 L2179.92 190.252 L2184.2 190.252 L2184.2 194.28 Q2185.73 191.942 2187.79 190.784 Q2189.87 189.627 2192.58 189.627 Q2197.04 189.627 2199.34 192.405 Q2201.63 195.159 2201.63 200.529 Z" fill="#000000" fill-rule="evenodd" fill-opacity="1"></path><path clip-path="url(#clip760)" d="M2227.18 202.914 Q2227.18 198.284 2225.26 195.738 Q2223.36 193.192 2219.92 193.192 Q2216.49 193.192 2214.57 195.738 Q2212.67 198.284 2212.67 202.914 Q2212.67 207.52 2214.57 210.066 Q2216.49 212.613 2219.92 212.613 Q2223.36 212.613 2225.26 210.066 Q2227.18 207.52 2227.18 202.914 M2231.44 212.96 Q2231.44 219.58 2228.5 222.798 Q2225.56 226.039 2219.5 226.039 Q2217.25 226.039 2215.26 225.691 Q2213.27 225.367 2211.4 224.673 L2211.4 220.529 Q2213.27 221.548 2215.1 222.034 Q2216.93 222.52 2218.83 222.52 Q2223.02 222.52 2225.1 220.321 Q2227.18 218.145 2227.18 213.724 L2227.18 211.617 Q2225.86 213.909 2223.8 215.043 Q2221.74 216.178 2218.87 216.178 Q2214.11 216.178 2211.19 212.543 Q2208.27 208.909 2208.27 202.914 Q2208.27 196.895 2211.19 193.261 Q2214.11 189.627 2218.87 189.627 Q2221.74 189.627 2223.8 190.761 Q2225.86 191.895 2227.18 194.187 L2227.18 190.252 L2231.44 190.252 L2231.44 212.96 Z" fill="#000000" fill-rule="evenodd" fill-opacity="1"></path></svg>